<?xml version="1.0" standalone="no"?><!DOCTYPE svg PUBLIC "-//W3C//DTD SVG 1.1//EN" "http://www.w3.org/Graphics/SVG/1.1/DTD/svg11.dtd"><svg t="1699949187211" class="icon" viewBox="0 0 1024 1024" version="1.1" xmlns="http://www.w3.org/2000/svg" p-id="1122" xmlns:xlink="http://www.w3.org/1999/xlink" width="16" height="16"><path d="M813.5168 384a322.56 322.56 0 0 0-623.1552 1.0752 170.1888 170.1888 0 0 0-151.3472 168.96v127.4368a49.7664 49.7664 0 0 0 49.7664 49.7664h844.8a49.7664 49.7664 0 0 0 49.4592-49.7664v-127.232A170.24 170.24 0 0 0 813.5168 384z" fill="#80B7F9" p-id="1123"></path><path d="M702.4128 349.952h-160.1536V224.6144a40.96 40.96 0 0 0-81.92 0v125.3376h-163.84a40.96 40.96 0 0 0 0 81.92h405.76a40.96 40.96 0 0 0 0-81.92z" fill="#FFFFFF" p-id="1124"></path><path d="M261.2224 745.3696m-137.9328 0a137.9328 137.9328 0 1 0 275.8656 0 137.9328 137.9328 0 1 0-275.8656 0Z" fill="#80B7F9" p-id="1125"></path><path d="M123.9552 731.2384h274.4832a137.984 137.984 0 0 0-274.4832 0z" fill="#3E8BF8" p-id="1126"></path><path d="M734.464 745.3696m-137.9328 0a137.9328 137.9328 0 1 0 275.8656 0 137.9328 137.9328 0 1 0-275.8656 0Z" fill="#80B7F9" p-id="1127"></path><path d="M597.1968 731.2384h274.4832a137.984 137.984 0 0 0-274.4832 0z" fill="#3E8BF8" p-id="1128"></path></svg>